<?xml version="1.0" encoding="UTF-8"?><svg id="Livello_1" xmlns="http://www.w3.org/2000/svg" xmlns:xlink="http://www.w3.org/1999/xlink" viewBox="0 0 370.54 370.54"><defs><style>.cls-1,.cls-2,.cls-3,.cls-4,.cls-5,.cls-6{fill:none;}.cls-7{stroke-miterlimit:10;stroke-width:1.16px;}.cls-7,.cls-3,.cls-4,.cls-5{stroke:#fff4e0;}.cls-7,.cls-8,.cls-9,.cls-10,.cls-11{fill:#fff4e0;}.cls-2,.cls-12,.cls-13,.cls-8,.cls-9,.cls-10,.cls-14,.cls-11{isolation:isolate;}.cls-15{fill:#f5804d;}.cls-3{stroke-width:1.15px;}.cls-3,.cls-4,.cls-5{stroke-linecap:round;stroke-linejoin:round;}.cls-4{stroke-width:1.8px;}.cls-16{letter-spacing:.02em;}.cls-12{letter-spacing:.04em;}.cls-12,.cls-13,.cls-14{fill:#6d3114;font-family:Montserrat-SemiBold, Montserrat;font-size:50.86px;font-weight:600;}.cls-5{stroke-width:2.89px;}.cls-13{letter-spacing:.04em;}.cls-8{letter-spacing:.04em;}.cls-8,.cls-9,.cls-10,.cls-11{font-family:Montserrat-Regular, Montserrat;font-size:19px;}.cls-9,.cls-17{letter-spacing:.03em;}.cls-10{letter-spacing:.03em;}.cls-14{letter-spacing:.03em;}.cls-6{clip-path:url(#clippath);}</style><clipPath id="clippath"><circle class="cls-1" cx="185.27" cy="185.27" r="185.27"/></clipPath></defs><g class="cls-6"><circle class="cls-15" cx="185.27" cy="185.27" r="185.27"/><circle class="cls-4" cx="185.27" cy="185.27" r="172.96"/><circle class="cls-3" cx="185.27" cy="185.27" r="159.45"/><path class="cls-7" d="m295.57,212.29c0-1.73-1.4-3.12-3.12-3.12h-21.07v-.04h-99.76c-.09,0-.16.07-.16.16v5.96c0,.09.07.16.16.16h120.83c1.73,0,3.12-1.4,3.12-3.12h0Z"/><path class="cls-7" d="m171.81,86.58c-4.67-5.48-5.72-11.97-2.87-17.81,2.95-6.04,9.33-9.75,16.23-9.46,7.69.33,12.83,6.82,14.51,13.1,1.48,5.53.75,12.9-5.73,17-.55.35-6.89,4.14-8.04,4.76-.16.07-.32.15-.47.24-.94.59-1.5,1.64-1.47,2.74v15.29c0,.92.41,1.8,1.11,2.4l95.6,81.12h9.71l-100.14-84.97v-11.99c1.56-.85,3.78-2.2,7.07-4.29,7.82-4.96,11.05-14.13,8.44-23.93-2.27-8.5-9.43-17.28-20.31-17.76-9.41-.41-18.11,4.69-22.15,12.98-3.94,8.07-2.54,17.29,3.73,24.65,1.13,1.32,3.11,1.48,4.43.35s1.48-3.11.35-4.43h0Z"/><path class="cls-7" d="m187.76,94.02c-.19-.04-.38-.07-.57-.07.19,0,.38.03.57.07Z"/><path class="cls-7" d="m186.81,93.96c-.06,0-.11,0-.17.01.05,0,.11,0,.17-.01Z"/><path class="cls-7" d="m187.93,94.05c.24.07.49.16.73.29-.23-.13-.48-.23-.73-.29Z"/><path class="cls-7" d="m153.85,212.27c0-1.74-1.41-3.14-3.14-3.14h-74.49c-.37,0-.61-.18-.73-.52-.12-.35-.03-.64.27-.87l97.64-79.17c1.3-1.01,1.76-2.86.89-4.25-1-1.6-3.14-1.96-4.59-.83l-97.77,79.27c-2.36,1.82-3.31,4.78-2.46,7.61.92,3.06,3.89,5.04,7.08,5.04h74.17c1.74,0,3.14-1.41,3.14-3.14h-.01Z"/><polyline class="cls-5" points="155.11 123.69 175.85 119.92 171.45 140.66"/><polyline class="cls-5" points="286.57 178.15 290.49 198.58 264.47 198.13"/><polyline class="cls-5" points="183.85 223.99 166.52 211.99 184.3 200.44"/><g class="cls-2"><text class="cls-13" transform="translate(65.34 275.37)"><tspan x="0" y="0">EN</tspan></text><text class="cls-14" transform="translate(144.58 275.37)"><tspan x="0" y="0">C</tspan></text><text class="cls-12" transform="translate(183.39 275.37)"><tspan x="0" y="0">ORE</tspan></text></g><g class="cls-2"><text class="cls-10" transform="translate(102.17 302.55)"><tspan x="0" y="0">V</tspan></text><text class="cls-8" transform="translate(115.91 302.55)"><tspan x="0" y="0">IN</tspan></text><text class="cls-11" transform="translate(138.61 302.55)"><tspan x="0" y="0">T</tspan></text><text class="cls-9" transform="translate(149.61 302.55)"><tspan x="0" y="0">A</tspan></text><text class="cls-8" transform="translate(163.81 302.55)"><tspan x="0" y="0">GE </tspan></text><text class="cls-11" transform="translate(198.46 302.55)"><tspan class="cls-16" x="0" y="0">S</tspan><tspan class="cls-17" x="12.06" y="0">T</tspan></text><text class="cls-8" transform="translate(222.19 302.55)"><tspan x="0" y="0">ORE</tspan></text></g></g></svg>