<?xml version="1.0" encoding="UTF-8"?><svg id="Livello_1" xmlns="http://www.w3.org/2000/svg" xmlns:xlink="http://www.w3.org/1999/xlink" viewBox="0 0 411.58 139.97"><defs><style>.cls-1,.cls-2,.cls-3{fill:none;}.cls-2{isolation:isolate;}.cls-4{fill:#f5804d;}.cls-5{fill:#6d3114;}.cls-3{clip-path:url(#clippath);}</style><clipPath id="clippath"><rect class="cls-1" width="411.58" height="139.97"/></clipPath></defs><g class="cls-3"><g class="cls-2"><path class="cls-5" d="m30.47,26.59v16.86h22.65v10.7h-22.65v17.83h25.54v10.99H16.98V15.61h39.03v10.99h-25.54Z"/><path class="cls-5" d="m125.78,82.97h-13.49l-30.55-46.16v46.16h-13.49V15.61h13.49l30.55,46.26V15.61h13.49v67.36Z"/><path class="cls-5" d="m140.28,31.46c2.99-5.24,7.07-9.31,12.24-12.24,5.17-2.92,10.97-4.38,17.39-4.38,7.52,0,14.1,1.93,19.76,5.78,5.65,3.85,9.6,9.19,11.85,16h-15.52c-1.54-3.21-3.71-5.62-6.5-7.23-2.79-1.6-6.02-2.41-9.69-2.41-3.92,0-7.41.92-10.46,2.75-3.05,1.83-5.43,4.42-7.13,7.76-1.7,3.34-2.55,7.26-2.55,11.76s.85,8.34,2.55,11.71c1.7,3.37,4.08,5.97,7.13,7.81,3.05,1.83,6.54,2.75,10.46,2.75,3.66,0,6.89-.82,9.69-2.46,2.79-1.64,4.96-4.06,6.5-7.28h15.52c-2.25,6.88-6.18,12.22-11.81,16.04-5.62,3.82-12.22,5.73-19.8,5.73-6.42,0-12.22-1.46-17.39-4.38-5.17-2.92-9.25-6.99-12.24-12.19-2.99-5.2-4.48-11.11-4.48-17.73s1.49-12.54,4.48-17.78Z"/><path class="cls-5" d="m226.97,79.21c-5.27-2.95-9.44-7.05-12.53-12.29-3.08-5.24-4.63-11.16-4.63-17.78s1.54-12.45,4.63-17.68c3.08-5.24,7.26-9.33,12.53-12.29,5.27-2.95,11.05-4.43,17.35-4.43s12.16,1.48,17.39,4.43c5.24,2.96,9.38,7.05,12.43,12.29,3.05,5.24,4.58,11.13,4.58,17.68s-1.53,12.54-4.58,17.78c-3.05,5.24-7.21,9.33-12.48,12.29-5.27,2.96-11.05,4.43-17.35,4.43s-12.08-1.48-17.35-4.43Zm28.04-10.36c3.08-1.83,5.49-4.45,7.23-7.85,1.73-3.4,2.6-7.36,2.6-11.85s-.87-8.43-2.6-11.8c-1.74-3.37-4.14-5.96-7.23-7.76-3.08-1.8-6.65-2.7-10.7-2.7s-7.63.9-10.75,2.7c-3.12,1.8-5.54,4.38-7.28,7.76s-2.6,7.31-2.6,11.8.87,8.45,2.6,11.85c1.73,3.41,4.16,6.02,7.28,7.85s6.7,2.75,10.75,2.75,7.61-.92,10.7-2.75Z"/><path class="cls-5" d="m323.43,82.97l-14.84-26.21h-6.36v26.21h-13.49V15.7h25.25c5.2,0,9.64.92,13.3,2.75,3.66,1.83,6.41,4.3,8.24,7.42,1.83,3.12,2.75,6.6,2.75,10.46,0,4.43-1.29,8.43-3.85,12-2.57,3.57-6.39,6.02-11.47,7.37l16.09,27.27h-15.61Zm-21.2-36.33h11.28c3.66,0,6.39-.88,8.19-2.65,1.8-1.77,2.7-4.22,2.7-7.37s-.9-5.48-2.7-7.18c-1.8-1.7-4.53-2.55-8.19-2.55h-11.28v19.76Z"/><path class="cls-5" d="m364,26.59v16.86h22.65v10.7h-22.65v17.83h25.54v10.99h-39.03V15.61h39.03v10.99h-25.54Z"/></g><g class="cls-2"><path class="cls-4" d="m36.17,103.73l-7.88,23.35h-2.38l-7.88-23.35h2.26l6.81,20.81,6.87-20.81h2.2Z"/><path class="cls-4" d="m50.3,103.73v23.35h-2.08v-23.35h2.08Z"/><path class="cls-4" d="m79.62,127.08h-2.08l-11.51-19.64v19.64h-2.08v-23.35h2.08l11.51,19.61v-19.61h2.08v23.35Z"/><path class="cls-4" d="m105.44,103.73v1.94h-5.77v21.41h-2.08v-21.41h-5.8v-1.94h13.65Z"/><path class="cls-4" d="m129.7,121.54h-9.46l-1.81,5.54h-2.2l7.58-23.05h2.35l7.55,23.05h-2.2l-1.81-5.54Zm-.62-1.94l-4.1-12.62-4.1,12.62h8.21Z"/><path class="cls-4" d="m162.33,110.55c-.6-1.54-1.5-2.74-2.72-3.62-1.22-.88-2.65-1.32-4.3-1.32-1.55,0-2.93.4-4.16,1.2-1.23.8-2.2,1.94-2.91,3.42-.71,1.48-1.07,3.2-1.07,5.16s.36,3.69,1.07,5.18c.71,1.49,1.68,2.64,2.91,3.44,1.23.8,2.62,1.2,4.16,1.2,1.45,0,2.75-.35,3.91-1.05,1.16-.7,2.09-1.7,2.8-3.01s1.11-2.82,1.2-4.56h-8.74v-1.9h10.94v1.7c-.1,2.05-.59,3.9-1.49,5.56-.89,1.66-2.09,2.97-3.58,3.92-1.5.96-3.18,1.44-5.04,1.44s-3.67-.51-5.23-1.52c-1.57-1.01-2.8-2.43-3.7-4.24-.9-1.81-1.35-3.87-1.35-6.16s.45-4.35,1.35-6.16c.9-1.81,2.14-3.23,3.7-4.24,1.57-1.01,3.31-1.52,5.23-1.52,2.22,0,4.16.62,5.83,1.87,1.67,1.25,2.87,2.98,3.63,5.21h-2.44Z"/><path class="cls-4" d="m180.23,105.64v8.72h7.88v1.94h-7.88v8.85h8.77v1.94h-10.85v-23.38h10.85v1.94h-8.77Z"/><path class="cls-4" d="m273,126.51c-1.04-.54-1.86-1.28-2.45-2.24-.6-.96-.91-2.03-.95-3.21h2.2c.1,1.14.54,2.13,1.34,2.99.79.86,1.95,1.29,3.48,1.29,1.41,0,2.52-.41,3.35-1.22.82-.81,1.23-1.84,1.23-3.09,0-1-.23-1.81-.68-2.42-.46-.61-1.02-1.07-1.7-1.37-.67-.3-1.61-.63-2.8-.99-1.39-.42-2.49-.83-3.3-1.24-.81-.4-1.51-1.02-2.08-1.87-.57-.85-.86-1.99-.86-3.44,0-1.2.28-2.28.83-3.22.56-.95,1.34-1.69,2.35-2.22,1.01-.53,2.17-.8,3.48-.8,1.92,0,3.48.53,4.65,1.59,1.18,1.06,1.86,2.42,2.04,4.09h-2.26c-.14-.96-.6-1.81-1.4-2.56-.79-.75-1.86-1.12-3.21-1.12-1.25,0-2.29.37-3.12,1.12-.83.75-1.25,1.77-1.25,3.06,0,.98.23,1.77.68,2.37s1.03,1.06,1.71,1.37c.68.31,1.61.65,2.78,1,1.35.42,2.44.84,3.27,1.25s1.54,1.04,2.11,1.89c.57.85.86,1.98.86,3.41,0,1.09-.26,2.13-.77,3.11-.52.98-1.28,1.77-2.29,2.37-1.01.6-2.22.9-3.63.9s-2.57-.27-3.61-.8Z"/><path class="cls-4" d="m308.41,103.73v1.94h-5.77v21.41h-2.08v-21.41h-5.8v-1.94h13.65Z"/><path class="cls-4" d="m324.73,125.79c-1.57-1.01-2.8-2.43-3.7-4.24s-1.35-3.87-1.35-6.16.45-4.35,1.35-6.16c.9-1.81,2.14-3.23,3.7-4.24,1.57-1.01,3.31-1.52,5.23-1.52s3.7.51,5.26,1.52c1.57,1.01,2.8,2.43,3.69,4.24.89,1.82,1.34,3.87,1.34,6.16s-.45,4.35-1.34,6.16c-.89,1.81-2.12,3.23-3.69,4.24-1.57,1.01-3.32,1.52-5.26,1.52s-3.67-.51-5.23-1.52Zm9.4-1.72c1.23-.8,2.2-1.95,2.91-3.46s1.07-3.25,1.07-5.23-.36-3.72-1.07-5.21c-.71-1.49-1.69-2.64-2.91-3.44s-2.62-1.2-4.16-1.2-2.93.4-4.16,1.2c-1.23.8-2.2,1.95-2.91,3.44-.71,1.49-1.07,3.23-1.07,5.21s.36,3.72,1.07,5.23,1.68,2.66,2.91,3.46c1.23.8,2.62,1.2,4.16,1.2s2.93-.4,4.16-1.2Z"/><path class="cls-4" d="m364.05,127.08l-5.14-9.75h-3.84v9.75h-2.08v-23.35h6.25c2.32,0,4.08.62,5.28,1.87,1.2,1.25,1.8,2.88,1.8,4.91,0,1.69-.43,3.13-1.29,4.33-.86,1.19-2.14,1.97-3.82,2.32l5.35,9.92h-2.5Zm-8.98-11.66h4.19c1.63,0,2.85-.45,3.67-1.34.82-.89,1.23-2.08,1.23-3.57s-.4-2.72-1.19-3.56c-.79-.84-2.04-1.25-3.75-1.25h-4.16v9.72Z"/><path class="cls-4" d="m381.44,105.64v8.72h7.88v1.94h-7.88v8.85h8.77v1.94h-10.85v-23.38h10.85v1.94h-8.77Z"/></g><path class="cls-4" d="m254.54,125.24h-24.58l.04-1.97-4.03,2.62,3.93,2.72.04-1.95h24.61c.39,0,.71-.32.71-.71s-.32-.71-.71-.71h0Z"/><path class="cls-4" d="m227.09,98.43c.3-.26.34-.71.08-1.01h0c-1.06-1.24-1.3-2.71-.65-4.04.67-1.37,2.12-2.21,3.68-2.15,1.74.07,2.91,1.55,3.29,2.97.34,1.25.17,2.93-1.3,3.86-.12.08-1.56.94-1.82,1.08-.04.02-.07.03-.11.05-.21.13-.34.37-.33.62v3.47c0,.21.09.41.25.54l20.19,17.13-1.95,1.76,5.9.1-.89-4.64-2,1.8-20.09-17.04v-2.72c.35-.19.86-.5,1.6-.97,1.77-1.13,2.51-3.21,1.92-5.43-.52-1.93-2.14-3.92-4.61-4.03-2.14-.09-4.11,1.06-5.03,2.95-.89,1.83-.58,3.92.85,5.59.26.3.71.34,1.01.08v.03Z"/><path class="cls-4" d="m222.38,125.23h-16.9c-.08,0-.14-.04-.17-.12s0-.15.06-.2l20.55-16.66,1.39,1.44,1-4.71-4.71.86,1.33,1.38-20.43,16.56c-.54.41-.75,1.08-.56,1.73.21.69.88,1.14,1.61,1.14h16.83c.39,0,.71-.32.71-.71h0c0-.39-.32-.71-.71-.71h0Z"/></g></svg>