<?xml version="1.0" encoding="UTF-8"?><svg id="Livello_1" xmlns="http://www.w3.org/2000/svg" xmlns:xlink="http://www.w3.org/1999/xlink" viewBox="0 0 1024 768"><defs><style>.cls-1,.cls-2{fill:none;}.cls-3{font-family:Poppins-Light, Poppins;font-size:33.4px;font-weight:300;letter-spacing:.3em;}.cls-3,.cls-4{fill:#f5804d;}.cls-5{fill:#6d3114;font-family:Poppins-SemiBold, Poppins;font-size:96.37px;font-weight:600;letter-spacing:0em;}.cls-2{clip-path:url(#clippath);}</style><clipPath id="clippath"><rect class="cls-1" x="230.04" y="332.01" width="512.68" height="126.64"/></clipPath></defs><g class="cls-2"><text class="cls-5" transform="translate(350.97 409.09)"><tspan x="0" y="0">ENCORE</tspan></text><text class="cls-3" transform="translate(386.21 443.04) scale(.97 1)"><tspan x="0" y="0">VINTAGE STORE</tspan></text><path class="cls-4" d="m371.08,440.21h-13.31v-.03h-55.11l.1-5.49-11.23,7.3,10.95,7.58.1-5.42h68.5c1.09,0,1.97-.88,1.97-1.97s-.88-1.97-1.97-1.97Z"/><path class="cls-4" d="m294.65,365.57c.83-.71.93-1.96.22-2.8h0c-2.95-3.46-3.61-7.55-1.81-11.24,1.86-3.82,5.89-6.16,10.25-5.98,4.86.21,8.1,4.31,9.17,8.27.93,3.49.47,8.15-3.62,10.74-.35.22-4.35,2.62-5.08,3.01-.1.04-.2.09-.3.15-.59.37-.95,1.04-.93,1.73v9.66c0,.58.26,1.14.7,1.52l56.21,47.7-5.43,4.91,16.44.28-2.48-12.9-5.56,5.02-55.92-47.45v-7.57c.99-.54,2.39-1.39,4.47-2.71,4.94-3.13,6.98-8.93,5.33-15.12-1.43-5.37-5.96-10.92-12.83-11.22-5.94-.26-11.44,2.96-13.99,8.2-2.49,5.1-1.6,10.92,2.36,15.57.71.83,1.96.93,2.8.22Z"/><path class="cls-4" d="m281.55,440.19h-47.05c-.23,0-.39-.11-.46-.33-.08-.22-.02-.4.17-.55l57.21-46.39,3.87,4.02,2.78-13.1-13.1,2.38,3.7,3.84-56.87,46.11c-1.49,1.15-2.09,3.02-1.55,4.81.58,1.93,2.46,3.18,4.47,3.18h46.85c1.1,0,1.98-.89,1.98-1.98h0c0-1.1-.89-1.98-1.98-1.98Z"/></g></svg>