<?xml version="1.0" encoding="UTF-8"?><svg id="Livello_1" xmlns="http://www.w3.org/2000/svg" xmlns:xlink="http://www.w3.org/1999/xlink" viewBox="0 0 1024 768"><defs><style>.cls-1,.cls-2{fill:none;}.cls-3{font-family:Poppins-Light, Poppins;font-size:33.4px;font-weight:300;letter-spacing:.3em;}.cls-3,.cls-4{fill:#f5804d;}.cls-5{fill:#6d3114;font-family:Poppins-SemiBold, Poppins;font-size:96.37px;font-weight:600;letter-spacing:0em;}.cls-2{clip-path:url(#clippath);}</style><clipPath id="clippath"><rect class="cls-1" x="295.26" y="318.68" width="411.58" height="139.97"/></clipPath></defs><g class="cls-2"><text class="cls-5" transform="translate(305.59 401.65)"><tspan x="0" y="0">ENCORE</tspan></text><text class="cls-3" transform="translate(312.57 445.76) scale(.9 1)"><tspan x="0" y="0" xml:space="preserve">VINTAGE    STORE</tspan></text><path class="cls-4" d="m552.8,443.92h-4.78s-19.8,0-19.8,0l.04-1.97-4.03,2.62,3.93,2.72.04-1.95h24.61c.39,0,.71-.32.71-.71s-.32-.71-.71-.71Z"/><path class="cls-4" d="m525.35,417.11c.3-.26.34-.71.08-1.01h0c-1.06-1.24-1.3-2.71-.65-4.04.67-1.37,2.12-2.21,3.68-2.15,1.74.07,2.91,1.55,3.29,2.97.34,1.25.17,2.93-1.3,3.86-.12.08-1.56.94-1.82,1.08-.04.02-.07.03-.11.05-.21.13-.34.37-.33.62v3.47c0,.21.09.41.25.54l20.19,17.13-1.95,1.76,5.9.1-.89-4.64-2,1.8-20.09-17.04v-2.72c.35-.19.86-.5,1.6-.97,1.77-1.13,2.51-3.21,1.92-5.43-.52-1.93-2.14-3.92-4.61-4.03-2.14-.09-4.11,1.06-5.03,2.95-.89,1.83-.58,3.92.85,5.59.26.3.71.34,1.01.08Z"/><path class="cls-4" d="m520.64,443.91h-16.9c-.08,0-.14-.04-.17-.12-.03-.08,0-.15.06-.2l20.55-16.66,1.39,1.44,1-4.71-4.71.86,1.33,1.38-20.43,16.56c-.54.41-.75,1.08-.56,1.73.21.69.88,1.14,1.61,1.14h16.83c.39,0,.71-.32.71-.71h0c0-.39-.32-.71-.71-.71Z"/></g></svg>